# xmcd
#
# Track frame offsets: 
#        150
#        12950
#        33947
#        53259
#        76600
#        90411
#        115751
#        134026
#        150071
#        209449
#        220377
#        241923
#        265751
#
# Disc length: 3833 seconds
#
# Revision: 0
# Processed by: cddbd v1.5.2PL0 Copyright (c) Steve Scherf et al.
# Submitted via: ExactAudioCopyFreeDBPlugin 1.0
#
DISCID=960ef70d
DTITLE=Robbie Williams - Take the Crown Stadium Tour
DYEAR=2003
DGENRE=pop
TTITLE0=Hey Wow Yeah Yeah
TTITLE1=Let Me Entertain You
TTITLE2=Monsoon
TTITLE3=Not Like the Others
TTITLE4=Minnie The Moocher
TTITLE5=Kids
TTITLE6=Sin Sin Sin
TTITLE7=Bodies
TTITLE8=Come Undone
TTITLE9=Everything Changes
TTITLE10=Strong
TTITLE11=Gospel
TTITLE12=Be A Boy
EXTD=
EXTT0=
EXTT1=
EXTT2=
EXTT3=
EXTT4=
EXTT5=
EXTT6=
EXTT7=
EXTT8=
EXTT9=
EXTT10=
EXTT11=
EXTT12=
PLAYORDER=
